<svg width="100" height="100" viewBox="0 0 100 100" fill="none" xmlns="http://www.w3.org/2000/svg">
<path d="M23.2924 65.6668C23.2814 65.6272 22.9246 64.3598 22.4996 62.8503C22.0746 61.3407 21.6755 59.9224 21.6128 59.6983C21.55 59.4743 21.16 58.0883 20.746 56.6183C20.3321 55.1484 19.9656 53.8401 19.9315 53.711C19.6922 52.8035 19.5391 51.8917 19.4684 50.9534C19.443 50.6172 19.4365 49.7262 19.4571 49.4023C19.5504 47.9293 19.8719 46.6314 20.4632 45.3397C21.0224 44.1182 21.7879 42.9914 22.8731 41.7922C23.0023 41.6495 27.4114 37.2334 35.8093 28.8354C47.0555 17.5893 48.5508 16.0976 48.5591 16.116C48.5839 16.1713 49.6422 19.5943 50.259 21.6147C51.8974 26.981 53.3211 31.7993 54.2867 35.2451C54.4037 35.6624 54.4997 36.0068 54.5001 36.0104C54.5005 36.0141 54.4013 36.0431 54.2796 36.075C53.5695 36.2609 52.9314 36.4601 52.3457 36.6786L52.2468 36.7156L52.0494 36.0065C51.6778 34.6724 51.4948 34.0428 51.4786 34.0427C51.4553 34.0425 51.1623 34.1923 50.9196 34.3283C50.5415 34.5402 50.1516 34.8041 49.7985 35.0873C49.6895 35.1747 48.6141 36.245 44.1451 40.714C38.9064 45.9527 38.6183 46.2427 38.4678 46.428C37.5535 47.5543 36.9846 48.7033 36.6336 50.1328C36.4733 50.7853 36.3746 51.4735 36.3268 52.2721C36.3104 52.5451 36.3123 53.6846 36.3291 53.6847C36.3359 53.6847 36.4016 53.5646 36.4752 53.4177C36.8866 52.5969 37.3067 51.9579 37.9414 51.1879C38.0938 51.0029 38.5034 50.5903 43.5805 45.5065C47.4181 41.6639 49.1145 39.9719 49.2533 39.8486C51.3522 37.9838 54.1337 37.0411 59.5204 36.3692C60.3222 36.2692 62.1624 36.0686 62.5737 36.0365C62.691 36.0273 63.9167 35.9066 64.0381 35.8922C64.0764 35.8877 64.11 35.8863 64.1128 35.8891C64.1156 35.8919 64.1142 35.9255 64.1097 35.9638C64.0948 36.0898 63.9744 37.3133 63.9656 37.4284C63.9465 37.6777 63.7551 39.4653 63.6851 40.0487C63.2136 43.9776 62.6569 46.3689 61.7705 48.2722C61.3756 49.1203 60.9197 49.8359 60.2916 50.5937C60.1025 50.8218 49.1678 61.7564 48.9103 61.9749C48.1079 62.6557 47.3178 63.176 46.4572 63.5902C46.3728 63.6308 46.3083 63.6687 46.314 63.6744C46.3323 63.6927 47.482 63.6892 47.7989 63.6698C49.9364 63.539 51.7084 62.9351 53.1878 61.8333C53.7154 61.4404 53.176 61.9688 59.2779 55.867C63.7277 51.4172 64.8185 50.3211 64.9097 50.2086C65.1804 49.8744 65.471 49.4463 65.6766 49.079C65.7879 48.88 65.9582 48.5442 65.9588 48.5227C65.9592 48.5077 65.1306 48.2673 63.8747 47.9181C63.5498 47.8277 63.2844 47.752 63.285 47.7499C63.2856 47.7478 63.3161 47.6669 63.3528 47.5701C63.5117 47.1509 63.7296 46.4553 63.8919 45.8489C63.9431 45.6577 63.9881 45.5013 63.992 45.5015C64.0028 45.5021 65.0871 45.8068 65.9053 46.0392C70.2164 47.2638 76.7268 49.2147 82.7452 51.0853C83.3608 51.2767 83.8741 51.4375 83.8858 51.4428C83.9048 51.4514 82.5088 52.8499 71.028 64.3249C61.3231 74.0248 58.1111 77.2292 57.9955 77.3269C57.9111 77.3981 57.7506 77.5333 57.6389 77.6273C56.4577 78.6205 55.1797 79.3806 53.8769 79.8648C51.6138 80.7059 49.1115 80.7853 46.4131 80.1016C46.2785 80.0675 45.0698 79.7303 43.727 79.3522C42.3842 78.9742 41.1023 78.6135 40.8784 78.5506C40.6544 78.4878 40.3418 78.4001 40.1837 78.3557C39.9209 78.282 34.6604 76.8006 34.3836 76.7224L34.2641 76.6886L35.2128 75.7346C35.7346 75.2099 36.1685 74.7807 36.1769 74.7808C36.195 74.781 36.1504 74.7686 38.8252 75.522C39.9836 75.8483 41.0458 76.1435 41.1857 76.1779C43.9772 76.8645 46.2126 76.6333 48.3362 75.4383C48.9883 75.0713 49.6922 74.5658 50.3292 74.0069C50.4239 73.9237 50.5293 73.8335 50.5634 73.8064C50.5974 73.7793 55.5876 68.8007 61.6527 62.7428L72.6801 51.7283L73.9533 52.1116C74.6535 52.3223 75.2345 52.4984 75.2444 52.5028C75.2696 52.5141 52.4591 75.3128 52.1804 75.5549C51.4584 76.1818 51.071 76.4885 50.5331 76.859C49.8928 77.3002 49.141 77.7249 48.5193 77.9968C48.4273 78.037 48.352 78.0741 48.352 78.0793C48.3522 78.1089 49.1502 78.1872 49.6013 78.2018C52.0396 78.2808 54.1629 77.4694 56.2857 75.6474C56.4083 75.5421 56.6338 75.34 56.7867 75.1982C57.1245 74.885 79.4624 52.5512 79.4501 52.5389C79.4412 52.53 76.5188 51.6369 74.8656 51.1379C72.86 50.5325 70.5614 49.8481 68.8519 49.3473L68.2881 49.1821L68.2407 49.29C68.2146 49.3494 68.1367 49.5143 68.0675 49.6565C67.6863 50.44 67.2753 51.082 66.7181 51.7642C66.5629 51.9542 66.2687 52.2503 61.0104 57.5086C55.1291 63.3899 55.3802 63.1427 54.9069 63.519C53.0957 64.9592 50.9197 65.7877 48.3891 66.0006C47.0358 66.1145 45.5125 66.0488 43.9473 65.8091C42.9867 65.6619 41.8735 65.4301 40.6684 65.1261C40.5135 65.0871 40.3831 65.0587 40.3786 65.0632C40.3555 65.0857 40.3063 65.8831 40.2938 66.4379C40.286 66.7853 40.2998 67.5459 40.3167 67.697L40.3214 67.7389L39.1333 67.4353C38.4799 67.2683 37.9403 67.1267 37.9342 67.1206C37.8976 67.084 37.9227 65.9372 37.975 65.251C38.0761 63.9246 38.3203 62.6306 38.6867 61.4789C38.726 61.3552 38.7559 61.2517 38.7531 61.2489C38.7503 61.246 38.6468 61.2759 38.5231 61.3153C37.3714 61.6817 36.0773 61.9258 34.751 62.027C34.0648 62.0793 32.918 62.1043 32.8814 62.0678C32.8753 62.0617 32.734 61.5229 32.5674 60.8704L32.2644 59.6841L32.4037 59.6909C32.993 59.7195 33.6047 59.718 34.1692 59.6865C34.553 59.6651 34.9281 59.6343 34.9388 59.6234C34.9432 59.6188 34.9149 59.4884 34.8759 59.3336C34.655 58.4578 34.4276 57.4244 34.3051 56.74C33.9499 54.754 33.8589 52.9397 34.0323 51.2991C34.287 48.8902 35.0981 46.8367 36.483 45.0951C36.8593 44.6218 36.612 44.8729 42.4934 38.9916C48.6577 32.8273 48.1019 33.3711 48.6761 32.9421C49.2646 32.5024 50.013 32.0683 50.712 31.7612L50.8201 31.7138L50.5223 30.6998C50.0075 28.9473 49.3771 26.8341 48.7501 24.7595C48.2773 23.1951 47.4713 20.56 47.463 20.5518C47.4508 20.5396 25.1278 42.8667 24.8088 43.2102C23.5307 44.5862 22.7212 45.8681 22.2501 47.262C21.8168 48.544 21.694 49.8717 21.873 51.3382C21.914 51.6736 21.9103 51.6498 21.9213 51.6499C21.9265 51.6499 21.9784 51.5437 22.0367 51.4137C22.6291 50.0939 23.4999 48.8344 24.7217 47.5301C24.9052 47.3343 29.2239 43.0081 36.2532 35.9786C45.2397 26.9919 47.4929 24.7437 47.4992 24.7579C47.5035 24.7677 47.6795 25.3486 47.8902 26.0488L48.2735 27.322L37.259 38.3492C31.2011 44.4142 26.2268 49.3996 26.2051 49.4279C26.1834 49.4563 26.0911 49.5641 26 49.6676C25.9089 49.7711 25.7571 49.9513 25.6626 50.068C23.5256 52.707 22.9707 55.3473 23.8241 58.8162C23.8585 58.9561 24.1374 59.961 24.4438 61.0492C25.2311 63.845 25.2208 63.8083 25.2211 63.8251C25.2212 63.8335 24.7918 64.2675 24.2669 64.7896L23.3125 65.7388L23.2924 65.6668ZM37.9702 58.997C39.2181 58.5726 40.1962 58.02 41.0428 57.2611C41.3174 57.0149 50.3436 47.9893 50.5545 47.7501C51.7382 46.4069 52.5374 44.1368 52.7153 41.6125C52.7358 41.3221 52.7529 40.8115 52.7502 40.5683L52.7482 40.3868L52.5212 40.501C52.0058 40.7602 51.6095 41.0106 51.1107 41.3926C50.9723 41.4985 50.5769 41.891 45.495 46.9661C41.5068 50.9489 39.982 52.478 39.8577 52.6191C38.7874 53.8347 38.1048 55.2432 37.7725 56.922C37.6465 57.5588 37.576 58.1848 37.5513 58.8859L37.5427 59.1312L37.6122 59.1132C37.6503 59.1033 37.8114 59.051 37.9702 58.997ZM41.4683 62.4336C43.3364 62.3226 44.9517 61.8285 46.3225 60.9487C46.5461 60.8052 46.8622 60.5757 47.1218 60.3683L47.3578 60.1798L52.9018 54.6358C57.3916 50.146 58.4664 49.0661 58.5538 48.9571C58.9289 48.4893 59.2339 48.0126 59.5112 47.4607L59.6152 47.2537L59.4337 47.2517C59.1913 47.2491 58.6808 47.2661 58.3893 47.2865C55.8681 47.4632 53.5956 48.2633 52.2519 49.4475C52.0203 49.6516 42.9776 58.6944 42.7407 58.9589C41.9665 59.8229 41.4135 60.8112 40.982 62.1021L40.8631 62.4578L41.0304 62.4537C41.1225 62.4515 41.3195 62.4424 41.4683 62.4336ZM54.6042 45.601C55.8486 45.2159 57.1928 44.9804 58.5516 44.9095C59.1286 44.8794 59.5525 44.8793 60.3326 44.9091L60.4454 44.9134L60.5105 44.651C60.7812 43.5602 61.0143 42.2479 61.2246 40.6306C61.3287 39.8298 61.4764 38.5476 61.4658 38.537C61.459 38.5302 60.9566 38.5843 60.2704 38.6657C58.181 38.9134 56.626 39.1744 55.3508 39.4914L55.0885 39.5566L55.0933 39.6785C55.1346 40.7467 55.1147 41.4628 55.0182 42.3791C54.909 43.4169 54.6801 44.52 54.3711 45.4979C54.34 45.5965 54.3168 45.6796 54.3196 45.6824C54.3224 45.6852 54.4504 45.6486 54.6042 45.601ZM54.5357 31.7958C54.3564 31.1765 54.2095 30.6669 54.2094 30.6633C54.2086 30.6494 54.9638 30.4983 55.5311 30.3988C57.6281 30.0311 59.8969 29.7741 64.9187 29.3351C66.6546 29.1834 69.0052 28.9762 70.2227 28.8676C70.7638 28.8194 71.21 28.7835 71.2143 28.7878C71.2186 28.7921 71.1955 29.0919 71.1629 29.454C71.0756 30.4242 70.8834 32.6019 70.7376 34.2746C70.2524 39.8396 70.0193 41.9743 69.6608 44.1342C69.5595 44.7451 69.3559 45.7935 69.3388 45.7926C69.3183 45.7915 67.074 45.1357 67.0672 45.1289C67.0627 45.1243 67.0845 44.9985 67.1157 44.8492C67.2573 44.1711 67.4167 43.2078 67.5555 42.1907C67.7914 40.4627 67.9928 38.4999 68.3164 34.7745C68.3702 34.1556 68.4594 33.1425 68.5147 32.5231C68.57 31.9037 68.613 31.3946 68.6102 31.3918C68.6073 31.389 68.048 31.4363 67.3672 31.4969C66.6865 31.5575 65.6733 31.6468 65.1158 31.6952C59.7561 32.1609 57.1909 32.4665 55.2038 32.8761C55.0267 32.9126 54.8773 32.9378 54.8717 32.9321C54.8662 32.9264 54.715 32.4151 54.5357 31.7958Z" fill="#8A21BA"/>
</svg>
