<svg width="75" height="61" viewBox="0 0 75 61" fill="none" xmlns="http://www.w3.org/2000/svg">
<path d="M17.4346 60.672C17.3988 60.6516 16.2503 60.0002 14.8824 59.2244C13.5145 58.4486 12.2294 57.7195 12.0266 57.6042C11.8238 57.4888 10.5679 56.7764 9.2358 56.021C7.90368 55.2657 6.71941 54.592 6.60409 54.524C5.79317 54.0461 5.04013 53.5034 4.32664 52.8828C4.07102 52.6605 3.43637 52.0278 3.22184 51.7814C2.24636 50.661 1.55588 49.5027 1.06063 48.1557C0.592311 46.8821 0.33681 45.5285 0.256242 43.8944C0.246657 43.7 0.241699 37.3874 0.241699 25.3733C0.241699 9.28467 0.244209 7.14803 0.263107 7.15528C0.31979 7.17703 3.48852 8.86855 5.3533 9.87251C10.3064 12.5391 14.7202 14.9672 17.8395 16.7413C18.2173 16.9561 18.5287 17.1338 18.5315 17.1361C18.5344 17.1384 18.4848 17.2302 18.4212 17.34C18.0506 17.9809 17.7402 18.5799 17.4807 19.1551L17.4368 19.2522L16.7959 18.8863C15.5898 18.1978 15.0152 17.8783 15.0036 17.8899C14.9871 17.9064 14.8857 18.2231 14.8103 18.494C14.6928 18.916 14.6037 19.3837 14.5542 19.8388C14.539 19.9793 14.5354 21.5141 14.5354 27.9074C14.5354 35.4019 14.5367 35.8154 14.5614 36.0556C14.7113 37.5153 15.1214 38.744 15.884 40.0177C16.2321 40.599 16.649 41.1619 17.1798 41.7673C17.3613 41.9743 18.1683 42.7881 18.1803 42.7761C18.1851 42.7713 18.1467 42.6383 18.0949 42.4806C17.8053 41.5992 17.6506 40.8416 17.5549 39.8369C17.5319 39.5955 17.5297 39.0074 17.525 31.7393C17.5214 26.2457 17.5246 23.822 17.5355 23.6345C17.701 20.7993 19.0013 18.1355 22.3351 13.8017C22.8313 13.1566 23.9908 11.6969 24.2589 11.3797C24.3353 11.2892 25.1167 10.3261 25.1924 10.229C25.2162 10.1984 25.239 10.1734 25.243 10.1734C25.247 10.1734 25.2697 10.1984 25.2936 10.229C25.3722 10.3298 26.1522 11.2911 26.2273 11.3797C26.3901 11.5717 27.5187 12.9873 27.8818 13.4547C30.3266 16.6023 31.6238 18.711 32.3429 20.7064C32.6633 21.5956 32.847 22.4335 32.9387 23.4249C32.9663 23.7232 32.9662 39.3663 32.9387 39.7068C32.8527 40.7677 32.6619 41.705 32.3462 42.6169C32.3152 42.7063 32.2964 42.7795 32.3044 42.7795C32.3304 42.7795 33.1409 41.9547 33.3513 41.7141C34.7701 40.0916 35.5961 38.3921 35.8632 36.5458C35.9584 35.8874 35.9506 36.6512 35.9506 27.9219C35.9506 21.556 35.947 19.9918 35.9319 19.846C35.887 19.4133 35.7898 18.8993 35.6754 18.4895C35.6134 18.2675 35.4964 17.9055 35.4816 17.8897C35.4712 17.8787 34.7154 18.2995 33.5803 18.948C33.2867 19.1158 33.0456 19.2514 33.0445 19.2495C33.0434 19.2475 33.0078 19.1678 32.9653 19.0724C32.7812 18.6589 32.4434 18.0055 32.1294 17.4556C32.0304 17.2822 31.9517 17.1381 31.9545 17.1355C31.9626 17.1282 32.9447 16.5706 33.6876 16.1515C37.602 13.9438 43.585 10.6824 49.1634 7.71551C49.734 7.41203 50.2107 7.15995 50.2227 7.15535C50.2422 7.14788 50.244 9.14679 50.2399 25.567C50.2363 39.4472 50.231 44.0368 50.2183 44.1894C50.209 44.3007 50.1911 44.5122 50.1786 44.6593C50.0456 46.2147 49.6794 47.6725 49.1006 48.9508C48.0951 51.1712 46.3819 53.0179 43.9904 54.459C43.8711 54.5308 42.7779 55.1543 41.5611 55.8443C40.3443 56.5344 39.1828 57.1933 38.98 57.3085C38.7772 57.4238 38.4941 57.5847 38.351 57.666C38.113 57.8013 33.3458 60.5045 33.0948 60.6465L32.9863 60.7078L32.9826 59.3468C32.9806 58.5982 32.9839 57.9809 32.9899 57.975C33.0028 57.9622 32.9625 57.9851 35.3867 56.6108C36.4365 56.0156 37.3963 55.4669 37.5195 55.3915C39.9789 53.8859 41.3961 52.1215 42.0527 49.7477C42.2543 49.0188 42.3946 48.1537 42.4498 47.2983C42.458 47.171 42.4688 47.0311 42.4737 46.9874C42.4786 46.9436 42.4868 39.813 42.4918 31.1414L42.501 15.375L43.6722 14.7384C44.3164 14.3883 44.8517 14.0986 44.8618 14.0947C44.8877 14.0848 44.8793 46.7089 44.8534 47.0814C44.7862 48.0462 44.7291 48.5427 44.6108 49.1925C44.4699 49.9661 44.2387 50.8076 43.9913 51.4468C43.9547 51.5414 43.9277 51.6218 43.9314 51.6255C43.9525 51.6466 44.5721 51.1317 44.9013 50.8196C46.6813 49.132 47.609 47.0327 47.8217 44.2111C47.834 44.048 47.8505 43.7422 47.8584 43.5314C47.8758 43.0658 47.8787 11.1122 47.8613 11.1122C47.8487 11.1122 45.1507 12.5638 43.6289 13.3893C41.7826 14.3909 39.6733 15.5455 38.1103 16.4101L37.5949 16.6952L37.6377 16.8064C37.6613 16.8675 37.7228 17.0412 37.7744 17.1924C38.0589 18.0255 38.2222 18.7787 38.3106 19.6653C38.3352 19.9121 38.3365 20.3343 38.3365 27.8568C38.3365 36.2707 38.3392 35.9142 38.2707 36.5219C38.0084 38.8476 37.0555 40.9968 35.4167 42.9591C34.5403 44.0086 33.4167 45.0513 32.1404 45.9993C31.3571 46.5812 30.406 47.2116 29.339 47.8562C29.2018 47.939 29.0896 48.0121 29.0895 48.0185C29.0891 48.0511 29.6182 48.6567 30.0017 49.0625C30.2417 49.3166 30.7894 49.8508 30.9082 49.9467L30.9411 49.9734L29.8863 50.606C29.3062 50.9539 28.8245 51.2386 28.8159 51.2386C28.7642 51.2386 27.9709 50.4004 27.5227 49.8721C26.6564 48.851 25.914 47.7508 25.3587 46.6649C25.299 46.5483 25.247 46.4528 25.243 46.4528C25.239 46.4528 25.187 46.5483 25.1273 46.6649C24.572 47.7508 23.8297 48.851 22.9633 49.8721C22.5151 50.4004 21.7218 51.2386 21.6701 51.2386C21.6615 51.2386 21.1806 50.9543 20.6014 50.6068L19.5484 49.9749L19.6516 49.8802C20.0886 49.4791 20.5201 49.0405 20.897 48.6141C21.1532 48.3243 21.3967 48.034 21.3965 48.0185C21.3964 48.0121 21.2842 47.939 21.1471 47.8562C20.3716 47.3878 19.4801 46.8113 18.9095 46.4093C17.2541 45.2428 15.9068 44.0101 14.8694 42.7125C13.3461 40.8073 12.4676 38.7583 12.2153 36.5219C12.1468 35.9142 12.1495 36.2707 12.1495 27.8568C12.1495 19.0383 12.141 19.8248 12.2437 19.1072C12.349 18.3717 12.5712 17.526 12.8483 16.8063L12.8912 16.695L11.9636 16.1828C10.3604 15.2974 8.42036 14.2368 6.5101 13.2013C5.06957 12.4205 2.63635 11.1122 2.62463 11.1122C2.60739 11.1122 2.61036 43.0503 2.62764 43.5242C2.69686 45.4226 3.03089 46.9186 3.68339 48.2526C4.28351 49.4796 5.13553 50.5172 6.29906 51.438C6.56522 51.6487 6.5458 51.6343 6.55363 51.6265C6.55731 51.6228 6.51889 51.5096 6.46826 51.375C5.9539 50.0072 5.67904 48.4834 5.62071 46.6765C5.61195 46.4052 5.60664 40.2215 5.60653 30.1653C5.60638 17.3091 5.60997 14.0893 5.62442 14.0949C5.63437 14.0988 6.16956 14.3885 6.81376 14.7386L7.98501 15.3752L7.99405 31.1415C7.99901 39.813 8.0069 46.9371 8.01157 46.9729C8.01624 47.0087 8.02725 47.1519 8.03602 47.291C8.0448 47.4302 8.06483 47.6677 8.08053 47.8188C8.43553 51.2351 9.91014 53.5206 12.9665 55.3915C13.0897 55.4669 13.9975 55.9862 14.9836 56.5454C17.5173 57.9821 17.4841 57.9632 17.4961 57.9751C17.5021 57.981 17.5054 58.5985 17.5034 59.3474L17.4997 60.7091L17.4346 60.672ZM23.0971 45.4021C23.6794 44.2059 23.9803 43.111 24.0423 41.9625C24.0624 41.5901 24.0628 28.6777 24.0427 28.3557C23.93 26.5483 22.8899 24.3528 21.2308 22.4199C21.0399 22.1975 20.6909 21.8201 20.5171 21.648L20.3874 21.5197L20.3076 21.7637C20.1264 22.3177 20.0233 22.7803 19.9406 23.4104C19.9177 23.5851 19.9156 24.1487 19.9108 31.414C19.907 37.1156 19.91 39.3 19.922 39.4899C20.0247 41.125 20.538 42.6207 21.4901 44.0592C21.8512 44.6049 22.2441 45.1032 22.7223 45.6222L22.8897 45.8038L22.9261 45.7413C22.9461 45.7069 23.023 45.5543 23.0971 45.4021ZM28.0007 45.3581C29.2431 43.9425 30.0359 42.4337 30.3831 40.8238C30.4398 40.5612 30.501 40.1709 30.5379 39.8369L30.5715 39.5333V31.602C30.5715 25.1789 30.5679 23.6377 30.5526 23.4972C30.4871 22.8943 30.3657 22.3351 30.1715 21.742L30.0987 21.5196L29.9689 21.648C29.7956 21.8195 29.4467 22.1968 29.255 22.4199C27.5972 24.3497 26.556 26.5475 26.4432 28.3557C26.4238 28.6673 26.4239 41.6038 26.4434 41.9625C26.5069 43.1343 26.8148 44.2368 27.4224 45.4688L27.5899 45.8083L27.7053 45.6857C27.7688 45.6183 27.9017 45.4708 28.0007 45.3581ZM25.3867 23.9217C25.9943 22.7561 26.7783 21.6262 27.689 20.6036C28.0757 20.1693 28.3754 19.866 28.948 19.3293L29.0309 19.2517L28.8914 19.0175C28.3114 18.0436 27.5483 16.9382 26.5534 15.6309C26.0608 14.9836 25.2586 13.9608 25.2435 13.9608C25.234 13.9608 24.917 14.3589 24.4893 14.9079C23.187 16.5796 22.272 17.8786 21.5945 19.0175L21.4551 19.2517L21.5447 19.3356C22.3293 20.0701 22.8216 20.5965 23.4012 21.3209C24.0578 22.1415 24.676 23.0942 25.149 24.0147C25.1967 24.1076 25.239 24.1835 25.243 24.1836C25.247 24.1836 25.3116 24.0658 25.3867 23.9217ZM15.5765 14.0959C15.0118 13.7812 14.5476 13.5217 14.545 13.5193C14.5346 13.5098 14.9617 12.8616 15.2925 12.3847C16.5154 10.6217 17.9379 8.81495 21.1785 4.90886C22.2987 3.55863 23.8142 1.72914 24.5984 0.780539C24.9469 0.359031 25.237 0.0141602 25.2431 0.0141602C25.2492 0.0141602 25.4449 0.245158 25.6778 0.527489C26.3021 1.2839 27.7061 2.97906 28.7858 4.27985C32.3778 8.60752 33.7223 10.3012 34.9962 12.1026C35.3564 12.612 35.9538 13.5076 35.9411 13.5192C35.9258 13.5331 33.8752 14.6693 33.8655 14.6693C33.8591 14.6693 33.7856 14.5636 33.7021 14.4345C33.3227 13.8482 32.7542 13.0452 32.1333 12.2184C31.0781 10.8135 29.8326 9.26551 27.4272 6.36932C27.0276 5.88816 26.3743 5.09962 25.9754 4.61701C25.5766 4.1344 25.247 3.73953 25.243 3.73953C25.239 3.73952 24.877 4.17343 24.4385 4.70377C23.9999 5.2341 23.3466 6.02264 22.9867 6.45608C19.5261 10.623 17.9283 12.6765 16.8128 14.3907C16.7134 14.5435 16.6256 14.6684 16.6176 14.6683C16.6097 14.6682 16.1412 14.4107 15.5765 14.0959Z" fill="#9123C2"/>
</svg>
