<svg width="34" height="41" viewBox="0 0 34 41" fill="none" xmlns="http://www.w3.org/2000/svg">
<path d="M11.614 40.9749C11.5898 40.9611 10.814 40.5211 9.88995 39.9971C8.96591 39.473 8.09779 38.9805 7.9608 38.9026C7.8238 38.8247 6.97546 38.3434 6.0756 37.8332C5.17574 37.3229 4.37575 36.8679 4.29785 36.8219C3.75007 36.4991 3.24139 36.1325 2.75942 35.7133C2.58674 35.5631 2.15803 35.1357 2.01312 34.9693C1.35416 34.2124 0.88774 33.43 0.553193 32.5201C0.236841 31.6597 0.0642484 30.7454 0.00982389 29.6415C0.00334878 29.5102 0 25.2459 0 17.1303C0 6.26232 0.00169539 4.81899 0.014461 4.82389C0.052751 4.83859 2.19326 5.98123 3.45293 6.65941C6.79879 8.46075 9.78037 10.1009 11.8875 11.2993C12.1427 11.4445 12.353 11.5645 12.3549 11.566C12.3569 11.5676 12.3234 11.6296 12.2805 11.7038C12.0301 12.1367 11.8204 12.5413 11.6451 12.9299L11.6155 12.9955L11.1825 12.7483C10.3678 12.2832 9.97962 12.0674 9.9718 12.0752C9.96063 12.0864 9.89218 12.3003 9.84121 12.4833C9.76182 12.7684 9.70168 13.0843 9.66826 13.3917C9.65794 13.4866 9.65552 14.5234 9.65552 18.8422C9.65552 23.9048 9.65641 24.1841 9.67307 24.3464C9.77433 25.3324 10.0514 26.1624 10.5665 27.0228C10.8017 27.4154 11.0833 27.7957 11.4418 28.2047C11.5644 28.3445 12.1096 28.8942 12.1177 28.8861C12.1209 28.8828 12.095 28.793 12.06 28.6865C11.8644 28.0911 11.7599 27.5794 11.6952 26.9007C11.6797 26.7376 11.6782 26.3403 11.675 21.4307C11.6726 17.7196 11.6748 16.0824 11.6821 15.9558C11.7939 14.0406 12.6723 12.2411 14.9243 9.31364C15.2595 8.87786 16.0427 7.89183 16.2238 7.67753C16.2755 7.61642 16.8033 6.96583 16.8544 6.90023C16.8705 6.87956 16.8859 6.86264 16.8886 6.86264C16.8913 6.86264 16.9067 6.87956 16.9228 6.90023C16.9759 6.96829 17.5028 7.61765 17.5535 7.67753C17.6635 7.80725 18.4259 8.76346 18.6711 9.07921C20.3226 11.2054 21.1989 12.6299 21.6847 13.9778C21.9011 14.5784 22.0252 15.1445 22.0871 15.8141C22.1057 16.0157 22.1057 26.5827 22.0871 26.8127C22.029 27.5294 21.9001 28.1626 21.6869 28.7785C21.666 28.839 21.6533 28.8884 21.6587 28.8884C21.6762 28.8884 22.2237 28.3312 22.3658 28.1687C23.3243 27.0727 23.8823 25.9246 24.0626 24.6775C24.127 24.2327 24.1217 24.7487 24.1217 18.8519C24.1217 14.5517 24.1193 13.4951 24.109 13.3966C24.0787 13.1043 24.0131 12.7571 23.9358 12.4803C23.8939 12.3303 23.8149 12.0858 23.8049 12.0751C23.7979 12.0677 23.2873 12.3519 22.5206 12.79C22.3222 12.9033 22.1593 12.995 22.1586 12.9936C22.1579 12.9923 22.1338 12.9385 22.1051 12.874C21.9807 12.5947 21.7525 12.1533 21.5405 11.7819C21.4736 11.6647 21.4204 11.5674 21.4223 11.5657C21.4277 11.5607 22.0912 11.184 22.593 10.9009C25.2372 9.4096 29.2788 7.20648 33.0471 5.20233C33.4325 4.99733 33.7545 4.82705 33.7626 4.82394C33.7758 4.8189 33.777 6.16918 33.7742 17.2612C33.7719 26.6374 33.7683 29.7377 33.7597 29.8408C33.7534 29.916 33.7413 30.0588 33.7328 30.1582C33.643 31.2089 33.3956 32.1937 33.0046 33.0571C32.3254 34.5571 31.1681 35.8045 29.5526 36.778C29.4721 36.8265 28.7336 37.2477 27.9116 37.7138C27.0897 38.1799 26.3051 38.625 26.1681 38.7029C26.0311 38.7807 25.8399 38.8894 25.7432 38.9444C25.5824 39.0357 22.3621 40.8618 22.1926 40.9577L22.1193 40.9991L22.1168 40.0798C22.1154 39.5741 22.1176 39.1571 22.1217 39.1531C22.1305 39.1444 22.1032 39.1599 23.7408 38.2316C24.4499 37.8295 25.0983 37.4589 25.1815 37.4079C26.8429 36.3908 27.8002 35.199 28.2437 33.5955C28.3799 33.1031 28.4747 32.5187 28.512 31.9409C28.5175 31.8549 28.5248 31.7604 28.5281 31.7309C28.5314 31.7013 28.5369 26.8845 28.5404 21.0268L28.5466 10.3764L29.3377 9.94635C29.7729 9.70984 30.1345 9.51418 30.1413 9.51156C30.1588 9.50482 30.1532 31.5427 30.1356 31.7943C30.0902 32.4461 30.0517 32.7815 29.9718 33.2205C29.8766 33.743 29.7204 34.3115 29.5533 34.7432C29.5286 34.8072 29.5103 34.8615 29.5128 34.8639C29.527 34.8782 29.9456 34.5304 30.168 34.3195C31.3704 33.1795 31.9971 31.7615 32.1407 29.8554C32.149 29.7453 32.1602 29.5387 32.1655 29.3963C32.1773 29.0818 32.1792 7.49682 32.1675 7.49682C32.1589 7.49682 30.3364 8.47738 29.3084 9.03506C28.0613 9.71163 26.6364 10.4916 25.5806 11.0756L25.2325 11.2682L25.2614 11.3433C25.2773 11.3846 25.3188 11.5019 25.3537 11.6041C25.5459 12.1668 25.6562 12.6756 25.7159 13.2745C25.7325 13.4413 25.7334 13.7265 25.7334 18.808C25.7334 24.4916 25.7352 24.2508 25.6889 24.6613C25.5117 26.2324 24.8681 27.6841 23.7611 29.0097C23.169 29.7187 22.41 30.423 21.5479 31.0634C21.0188 31.4565 20.3763 31.8823 19.6555 32.3178C19.5629 32.3737 19.487 32.4231 19.487 32.4274C19.4867 32.4494 19.8441 32.8585 20.1031 33.1326C20.2653 33.3042 20.6353 33.6651 20.7155 33.7299L20.7378 33.7479L20.0252 34.1753C19.6333 34.4103 19.3079 34.6026 19.3021 34.6026C19.2672 34.6026 18.7314 34.0364 18.4286 33.6795C17.8434 32.9898 17.3419 32.2466 16.9668 31.513C16.9265 31.4342 16.8913 31.3698 16.8886 31.3698C16.8859 31.3698 16.8508 31.4342 16.8105 31.513C16.4354 32.2466 15.9339 32.9898 15.3486 33.6795C15.0459 34.0364 14.51 34.6026 14.4751 34.6026C14.4693 34.6026 14.1444 34.4105 13.7532 34.1758L13.0418 33.749L13.1116 33.685C13.4068 33.4141 13.6982 33.1177 13.9528 32.8297C14.1259 32.634 14.2904 32.4378 14.2903 32.4274C14.2902 32.4231 14.2144 32.3737 14.1218 32.3178C13.5979 32.0013 12.9957 31.6119 12.6103 31.3403C11.492 30.5524 10.5819 29.7197 9.88114 28.8432C8.85212 27.5562 8.25871 26.172 8.08831 24.6613C8.04201 24.2508 8.04384 24.4916 8.04384 18.808C8.04384 12.851 8.03812 13.3823 8.10748 12.8976C8.17858 12.4007 8.3287 11.8294 8.51591 11.3432L8.54484 11.2681L7.91828 10.9221C6.83527 10.324 5.52476 9.60753 4.23436 8.90806C3.26127 8.38059 1.61761 7.49682 1.60969 7.49682C1.59805 7.49682 1.60005 29.0713 1.61173 29.3915C1.65848 30.6738 1.88413 31.6844 2.3249 32.5855C2.73028 33.4143 3.30583 34.1153 4.0918 34.7373C4.2716 34.8796 4.25848 34.8699 4.26377 34.8646C4.26625 34.8621 4.2403 34.7857 4.2061 34.6947C3.85865 33.7707 3.67297 32.7414 3.63357 31.5208C3.62766 31.3376 3.62407 27.1604 3.62399 20.3674C3.62389 11.6829 3.62632 9.50787 3.63608 9.5117C3.6428 9.51434 4.00433 9.71 4.43949 9.9465L5.23068 10.3765L5.23678 21.0268C5.24014 26.8845 5.24547 31.6969 5.24862 31.7211C5.25178 31.7453 5.25921 31.842 5.26514 31.936C5.27107 32.03 5.2846 32.1904 5.29521 32.2925C5.53501 34.6002 6.53112 36.1441 8.59571 37.4079C8.67898 37.4589 9.29215 37.8096 9.95832 38.1874C11.6698 39.1579 11.6474 39.1451 11.6555 39.1531C11.6596 39.1571 11.6618 39.5743 11.6604 40.0802L11.6579 41L11.614 40.9749ZM15.439 30.66C15.8324 29.8519 16.0356 29.1123 16.0775 28.3365C16.0911 28.0849 16.0914 19.3625 16.0778 19.145C16.0017 17.924 15.2991 16.441 14.1783 15.1353C14.0494 14.985 13.8137 14.7301 13.6962 14.6139L13.6086 14.5272L13.5547 14.692C13.4323 15.0663 13.3627 15.3788 13.3068 15.8044C13.2913 15.9224 13.2899 16.3031 13.2867 21.2109C13.2841 25.0624 13.2862 26.538 13.2942 26.6662C13.3636 27.7708 13.7103 28.7811 14.3535 29.7529C14.5975 30.1215 14.8628 30.458 15.1859 30.8087L15.2989 30.9314L15.3235 30.8891C15.337 30.8659 15.389 30.7628 15.439 30.66ZM18.7514 30.6302C19.5907 29.674 20.1263 28.6548 20.3608 27.5673C20.3991 27.3899 20.4404 27.1263 20.4654 26.9007L20.4881 26.6955V21.3379C20.4881 16.999 20.4856 15.9579 20.4753 15.863C20.4311 15.4557 20.349 15.078 20.2178 14.6774L20.1687 14.5271L20.081 14.6139C19.964 14.7297 19.7283 14.9846 19.5988 15.1353C18.4789 16.4389 17.7756 17.9235 17.6994 19.145C17.6863 19.3555 17.6863 28.0942 17.6995 28.3365C17.7424 29.128 17.9504 29.8728 18.3608 30.705L18.4739 30.9344L18.5519 30.8516C18.5948 30.806 18.6846 30.7064 18.7514 30.6302ZM16.9857 16.1498C17.3961 15.3624 17.9257 14.5992 18.5409 13.9083C18.8022 13.615 19.0046 13.4101 19.3914 13.0476L19.4473 12.9952L19.3531 12.8369C18.9614 12.179 18.4459 11.4323 17.7738 10.5493C17.441 10.112 16.8992 9.42109 16.889 9.42109C16.8825 9.42109 16.6684 9.68999 16.3795 10.0609C15.4998 11.1901 14.8817 12.0676 14.424 12.8369L14.3299 12.9952L14.3904 13.0518C14.9204 13.548 15.2529 13.9036 15.6445 14.3929C16.088 14.9472 16.5056 15.5908 16.8251 16.2126C16.8574 16.2753 16.8859 16.3266 16.8886 16.3267C16.8913 16.3267 16.935 16.2471 16.9857 16.1498ZM10.3588 9.51237C9.97737 9.29978 9.6638 9.12448 9.66199 9.12283C9.65499 9.11646 9.94352 8.67855 10.167 8.35639C10.993 7.1655 11.9539 5.94502 14.143 3.30642C14.8997 2.39432 15.9235 1.15848 16.4532 0.517696C16.6886 0.232963 16.8845 0 16.8887 0C16.8928 0 17.025 0.156041 17.1824 0.346759C17.604 0.857725 18.5525 2.00282 19.2818 2.88152C21.7082 5.80489 22.6165 6.94898 23.477 8.16587C23.7203 8.50999 24.1239 9.11496 24.1153 9.12277C24.105 9.13216 22.7198 9.8997 22.7132 9.89966C22.7089 9.89966 22.6592 9.82828 22.6028 9.7411C22.3465 9.34505 21.9625 8.80258 21.543 8.24406C20.8303 7.29509 19.989 6.24938 18.3641 4.29297C18.0941 3.96794 17.6528 3.43528 17.3834 3.10927C17.1139 2.78326 16.8913 2.51652 16.8886 2.51652C16.8859 2.51652 16.6414 2.80963 16.3451 3.16787C16.0489 3.52612 15.6076 4.05879 15.3644 4.35158C13.0268 7.16634 11.9475 8.5535 11.194 9.71152C11.1268 9.81472 11.0675 9.8991 11.0621 9.89903C11.0567 9.89893 10.7402 9.72497 10.3588 9.51237Z" fill="#5A2970"/>
</svg>
