<svg width="190" height="22" viewBox="0 0 190 22" fill="none" xmlns="http://www.w3.org/2000/svg">
<path d="M51.6502 21.9892C48.4308 21.7211 45.8124 20.3229 43.9903 17.8985C41.327 14.3552 41.1026 8.80198 43.4645 4.89252C44.2537 3.58638 45.5376 2.29206 46.8061 1.52401C48.1131 0.732638 49.562 0.24105 51.1185 0.0608431C51.8194 -0.0203046 53.1751 -0.0202574 53.8753 0.0608431C55.1853 0.212745 56.2733 0.530907 57.3607 1.08001C59.0018 1.90879 60.3049 3.16077 61.2987 4.86374C61.5942 5.37015 62.021 6.27214 62.0377 6.42565C62.0462 6.50441 61.9564 6.55077 61.1217 6.89812C60.6127 7.10994 60.0518 7.34397 59.8753 7.41819L59.5545 7.55313L59.3692 7.10557C58.2986 4.52035 56.3643 2.97559 53.693 2.57255C53.0932 2.48205 51.7192 2.48246 51.1579 2.57333C47.5424 3.1585 45.0818 5.84948 44.5991 9.74629C44.4668 10.8141 44.531 12.2434 44.7585 13.2956C45.4262 16.384 47.5174 18.6125 50.444 19.3543C51.1244 19.5268 51.539 19.5785 52.4188 19.6004C53.4121 19.6251 54.0209 19.564 54.8402 19.3574C57.5541 18.6727 59.4812 16.6296 60.2279 13.6452C60.3038 13.3419 60.3785 12.9919 60.3939 12.8674L60.4219 12.6409H56.3997H52.3774L52.3879 11.6268L52.3985 10.6127L57.6915 10.6027L62.9846 10.5927L62.9571 11.2097C62.8947 12.6076 62.6854 13.8034 62.2999 14.9648C61.9078 16.146 61.3961 17.1304 60.6762 18.0887C60.2658 18.6351 59.4493 19.4732 58.9556 19.8548C57.4959 20.9832 55.8687 21.6534 53.9541 21.9149C53.5141 21.9749 52.0477 22.0222 51.6502 21.9891V21.9892ZM0 21.5813C0 21.5382 0.0976609 20.0629 0.217029 18.3027C0.676679 11.5248 0.833209 9.20587 1.12291 4.88263C1.28765 2.42418 1.43011 0.389455 1.4395 0.361029C1.45328 0.319288 1.74564 0.311714 2.9595 0.321647L4.46244 0.333949L4.78584 1.20036C4.96371 1.67689 6.11154 4.75168 7.33656 8.03323C8.56158 11.3148 9.86802 14.8147 10.2397 15.8109C10.6115 16.807 10.9274 17.6431 10.9418 17.6688C10.9562 17.6945 12.3936 13.8756 14.1361 9.18229C15.8785 4.48899 17.3343 0.576389 17.3713 0.487633L17.4385 0.326257L18.9377 0.318123L20.437 0.309989L20.4557 0.400734C20.4659 0.450639 20.5821 2.11305 20.7137 4.09498C20.8454 6.07691 21.1653 10.8353 21.4246 14.6692C21.684 18.5031 21.8963 21.6443 21.8964 21.6497C21.8964 21.6552 21.3384 21.6596 20.6561 21.6596C19.6597 21.6596 19.4156 21.6494 19.4156 21.608C19.4156 21.5796 19.1498 17.6608 18.8249 12.8996C18.4999 8.13835 18.2332 4.22282 18.232 4.19842C18.2301 4.158 17.8669 5.10467 17.4861 6.14287C17.4026 6.37031 17.2024 6.91083 17.0412 7.34404C16.8799 7.77725 16.5345 8.70766 16.2735 9.41162C16.0126 10.1156 15.6571 11.0726 15.4836 11.5383C15.3101 12.004 14.475 14.2527 13.6278 16.5354C12.7806 18.8181 12.0698 20.7188 12.0482 20.7592C12.0113 20.828 11.9421 20.8326 10.9287 20.8326C9.91433 20.8326 9.846 20.8281 9.80905 20.759C9.77831 20.7016 3.77227 4.49257 3.69278 4.25251C3.68202 4.22002 3.6613 4.30863 3.64675 4.44942C3.61448 4.76148 2.4811 21.384 2.4811 21.5451V21.6596H1.24055C0.028706 21.6596 0 21.6578 0 21.5813ZM26.2681 10.9869V0.314258H32.9435H39.6188V1.47604V2.63783H34.2628H28.9068V6.04442V9.451H33.7311H38.5555V10.6128V11.7746H33.7311H28.9068V15.5553V19.336H34.3416H39.7764V20.4978V21.6596H33.0223H26.2681V10.9869ZM64.1928 20.6066C64.4036 20.0269 65.164 17.931 65.8825 15.9491C66.601 13.9672 68.1689 9.64299 69.3666 6.33978L71.5444 0.333949H73.1364H74.7284L75.2506 1.77141C75.5379 2.56202 76.0552 3.98865 76.4003 4.9417C77.2174 7.19852 77.9463 9.20857 79.828 14.3935C80.677 16.7328 81.5633 19.1785 81.7976 19.8283C82.0319 20.4781 82.278 21.1562 82.3445 21.3352L82.4654 21.6606L81.1622 21.6503L79.859 21.6399L79.7866 21.443C79.7468 21.3347 79.4559 20.5314 79.1401 19.6579C78.8244 18.7843 77.8508 16.0994 76.9766 13.6914C76.1024 11.2834 74.8957 7.95742 74.2952 6.3004C73.6947 4.64338 73.1902 3.26354 73.1742 3.2341C73.138 3.16759 73.3933 2.48351 71.3023 8.24984C70.3205 10.9574 68.9739 14.6702 68.3098 16.5005C67.6457 18.3308 66.9547 20.2359 66.7743 20.7341L66.4462 21.6399L65.1279 21.6503L63.8096 21.6606L64.1928 20.6066ZM85.2336 10.9968L85.2435 0.333949H86.343H87.4426L89.0681 2.75597C89.9621 4.08809 91.142 5.84662 91.6902 6.66383C92.2383 7.48104 93.1033 8.77054 93.6123 9.5294C94.1213 10.2883 95.4416 12.2582 96.5463 13.907C97.651 15.5558 98.5852 16.9423 98.6224 16.9882C98.6863 17.067 98.6901 16.6169 98.6913 8.69236L98.6926 0.31319L100.002 0.32357L101.312 0.333949L101.321 10.9968L101.331 21.6596L100.219 21.6592L99.1061 21.6588L93.4941 13.3078L87.8821 4.95678L87.8722 13.3081L87.8622 21.6594H86.5429H85.2236L85.2336 10.9966V10.9968ZM113.225 10.9852V0.310806L117.685 0.32481C122.477 0.339858 122.323 0.333775 123.302 0.547481C124.167 0.736123 125.152 1.16377 125.815 1.63776C126.25 1.94898 126.88 2.58685 127.153 2.99227C127.837 4.0069 128.158 5.19989 128.097 6.49731C128.029 7.95837 127.532 9.15045 126.584 10.1287C125.325 11.4268 123.677 12.0678 121.373 12.1542L120.68 12.1803L122.397 14.3352C124.514 16.9923 127.881 21.2159 128.085 21.4709L128.236 21.6596L126.726 21.657L125.217 21.6543L121.512 16.9212L117.808 12.1881L116.816 12.1776L115.824 12.1671V16.9133V21.6596H114.524H113.225V10.9852ZM122.362 10.0919C123.054 9.94072 123.506 9.75815 123.996 9.43239C125.031 8.74394 125.575 7.57338 125.498 6.20195C125.408 4.58895 124.516 3.43331 122.961 2.91476C122.203 2.6622 122.21 2.66263 118.866 2.64775L115.824 2.63421V6.41873V10.2033L118.906 10.1884C121.847 10.1742 122.004 10.1698 122.362 10.0919ZM131.813 10.9864V0.31319L133.123 0.32357L134.432 0.333949L134.442 10.9968L134.452 21.6596H133.133H131.813V10.9864ZM139.454 10.9864V0.31319L140.763 0.32357L142.072 0.333949L142.082 9.81529L142.092 19.2966H147.448H152.804V20.4781V21.6596H146.129H139.454V10.9864ZM155.679 10.9869V0.314277H162.354H169.03V1.47606V2.63785H163.674H158.318V6.04428V9.45071L163.152 9.46071L167.986 9.47072L167.997 10.6227L168.007 11.7746H163.162H158.318V15.5552V19.3358L163.762 19.3457L169.207 19.3557L169.217 20.5077L169.228 21.6596H162.454H155.679V10.9869ZM178.482 17.2708V12.8819L177.878 11.9246C176.757 10.1489 174.064 5.88971 173.836 5.53246C173.711 5.33752 173.013 4.23528 172.285 3.08305C171.557 1.93082 170.88 0.860446 170.78 0.704444C170.68 0.548442 170.589 0.396835 170.578 0.367538C170.561 0.323359 170.809 0.314277 172.031 0.314277H173.505L174.354 1.70251C174.821 2.46604 176.226 4.76549 177.476 6.81239C178.727 8.8593 179.77 10.5557 179.795 10.5821C179.84 10.629 179.976 10.4077 184.5 2.93384C184.789 2.45697 185.264 1.67248 185.557 1.19054L186.088 0.314277H187.562C188.373 0.314277 189.036 0.321992 189.036 0.33142C189.036 0.340852 187.571 2.66688 185.78 5.50038C183.99 8.33388 182.2 11.1661 181.803 11.7943L181.082 12.9364L181.081 17.298L181.081 21.6596H179.781H178.482V17.2708Z" fill="#5A2970"/>
</svg>
